<svg width="28" height="20" viewBox="0 0 28 20" fill="none" xmlns="http://www.w3.org/2000/svg">
<g clip-path="url(#clip0)">
<path fill-rule="evenodd" clip-rule="evenodd" d="M0.383972 0H27.0205V1.53906H0.383972V0ZM0.383972 3.07812H27.0205V4.61719H0.383972V3.07812ZM0.383972 6.15234H27.0205V7.69531H0.383972V6.15234ZM0.383972 9.23047H27.0205V10.7695H0.383972V9.23047ZM0.383972 12.3086H27.0205V13.8477H0.383972V12.3086ZM0.383972 15.3828H27.0205V16.9219H0.383972V15.3828ZM0.383972 18.4609H27.0205V20H0.383972V18.4609Z" fill="#BD3D44"/>
<path fill-rule="evenodd" clip-rule="evenodd" d="M0.383972 1.5387H27.0205V3.07776H0.383972V1.5387ZM0.383972 4.61682H27.0205V6.15198H0.383972V4.61682ZM0.383972 7.69104H27.0205V9.2301H0.383972V7.69104ZM0.383972 10.7692H27.0205V12.3082H0.383972V10.7692ZM0.383972 13.8473H27.0205V15.3864H0.383972V13.8473ZM0.383972 16.9215H27.0205V18.4606H0.383972V16.9215Z" fill="white"/>
<path fill-rule="evenodd" clip-rule="evenodd" d="M0.383972 0H11.038V10.7695H0.383972V0Z" fill="#192F5D"/>
<path fill-rule="evenodd" clip-rule="evenodd" d="M1.27101 0.461395L1.36958 0.887176H1.68173L1.42982 1.14889L1.52566 1.57858L1.27101 1.31296L1.0191 1.57468L1.11494 1.14889L0.860291 0.887176H1.17791L1.27101 0.461395ZM3.04806 0.461395L3.14389 0.887176H3.45878L3.20413 1.14889L3.29996 1.57858L3.04806 1.31296L2.79341 1.57468L2.88924 1.14889L2.63734 0.887176H2.94948L3.04806 0.461395ZM4.82237 0.461395L4.92094 0.887176H5.23035L4.97844 1.14889L5.07427 1.57858L4.81963 1.31296L4.56772 1.57468L4.66355 1.14889L4.40891 0.887176H4.72379L4.82237 0.461395ZM6.59941 0.461395L6.69525 0.887176H7.01013L6.75548 1.14889L6.85406 1.57858L6.59941 1.31296L6.34477 1.57468L6.44334 1.14889L6.18869 0.887176H6.50084L6.59941 0.461395ZM8.37372 0.461395L8.47229 0.887176H8.78444L8.53253 1.14889L8.62837 1.57858L8.37372 1.31296L8.12181 1.57468L8.21765 1.14889L7.96574 0.887176H8.27788L8.37372 0.461395ZM10.1508 0.461395L10.2466 0.887176H10.5615L10.3068 1.14889L10.4054 1.57858L10.1508 1.31296L9.89612 1.57468L9.99469 1.14889L9.74005 0.887176H10.0549L10.1508 0.461395ZM2.1609 1.53952L2.25674 1.9653H2.57162L2.31698 2.22702L2.41007 2.6528L2.16364 2.39108L1.90899 2.6528L1.99935 2.22702L1.75292 1.9653H2.06507L2.1609 1.53952ZM3.93521 1.53952L4.03378 1.9653H4.34593L4.09128 2.22702L4.18986 2.6528L3.93521 2.39108L3.68056 2.6528L3.77914 2.22702L3.52449 1.9653H3.83938L3.93521 1.53952ZM5.71226 1.53952L5.80809 1.9653H6.12298L5.86833 2.22702L5.96417 2.6528L5.71226 2.39108L5.45761 2.6528L5.55345 2.22702L5.30154 1.9653H5.61368L5.71226 1.53952ZM7.48657 1.53952L7.58514 1.9653H7.89728L7.64264 2.22702L7.74121 2.6528L7.48657 2.39108L7.23466 2.6528L7.33049 2.22702L7.07585 1.9653H7.39347L7.48657 1.53952ZM9.26361 1.53952L9.35945 1.9653H9.67433L9.41969 2.22702L9.51552 2.6528L9.26361 2.39108L9.00897 2.6528L9.1048 2.22702L8.85289 1.9653H9.16504L9.26361 1.53952ZM1.27101 2.61374L1.36958 3.04733H1.68173L1.42982 3.30905L1.52566 3.73483L1.27101 3.46921L1.0191 3.73483L1.11494 3.30514L0.860291 3.04343H1.17791L1.27101 2.61374ZM3.04806 2.61374L3.14389 3.04343H3.45878L3.20413 3.30514L3.29996 3.73092L3.04806 3.4653L2.79341 3.73092L2.88924 3.30124L2.63734 3.03952H2.94948L3.04806 2.61374ZM4.82237 2.61374L4.92094 3.04343H5.23035L4.97844 3.30514L5.07427 3.73092L4.81963 3.4653L4.56772 3.73092L4.66355 3.30124L4.40891 3.03952H4.72379L4.82237 2.61374ZM6.59941 2.61374L6.69525 3.04343H7.01013L6.75548 3.30514L6.85406 3.73092L6.59941 3.4653L6.34477 3.73092L6.44334 3.30124L6.18869 3.03952H6.50084L6.59941 2.61374ZM8.37372 2.61374L8.47229 3.04343H8.78444L8.53253 3.30514L8.62837 3.73092L8.37372 3.4653L8.12181 3.73092L8.21765 3.30124L7.96574 3.03952H8.27788L8.37372 2.61374ZM10.1508 2.61374L10.2466 3.04343H10.5615L10.3068 3.30514L10.4054 3.73092L10.1508 3.4653L9.89612 3.73092L9.99469 3.30124L9.74005 3.03952H10.0549L10.1508 2.61374ZM2.1609 3.69186L2.25674 4.11764H2.57162L2.31698 4.37936L2.41281 4.80905L2.1609 4.54342L1.90626 4.80514L2.00209 4.37936L1.75018 4.11764H2.06233L2.1609 3.69186ZM3.93521 3.69186L4.03378 4.11764H4.34593L4.09128 4.37936L4.18986 4.80905L3.93521 4.54342L3.68056 4.80514L3.77914 4.37936L3.52449 4.11764H3.83938L3.93521 3.69186ZM5.71226 3.69186L5.80809 4.11764H6.12298L5.86833 4.37936L5.96417 4.80905L5.71226 4.54342L5.45761 4.80514L5.55345 4.37936L5.30154 4.11764H5.61368L5.71226 3.69186ZM7.48657 3.69186L7.58514 4.11764H7.89728L7.64538 4.37936L7.74121 4.80905L7.48657 4.54342L7.23466 4.80514L7.33049 4.37936L7.07585 4.11764H7.39347L7.48657 3.69186ZM9.26361 3.69186L9.35945 4.11764H9.67433L9.41969 4.37936L9.51552 4.80905L9.26361 4.54342L9.00897 4.80514L9.1048 4.37936L8.85289 4.11764H9.16504L9.26361 3.69186ZM1.27101 4.76999L1.36958 5.19577H1.68173L1.42982 5.45749L1.52566 5.88717L1.27101 5.62155L1.0191 5.88327L1.11494 5.45749L0.860291 5.19577H1.17791L1.27101 4.76999ZM3.04806 4.76999L3.14389 5.19577H3.45878L3.20413 5.45749L3.29996 5.88327L3.04806 5.62155L2.79341 5.88327L2.88924 5.45749L2.63734 5.19577H2.94948L3.04806 4.76999ZM4.82237 4.76999L4.92094 5.19577H5.23035L4.97844 5.45749L5.07427 5.88717L4.81963 5.62155L4.56772 5.88327L4.66355 5.45749L4.40891 5.19577H4.72379L4.82237 4.76999ZM6.59941 4.76999L6.69525 5.19577H7.01013L6.75548 5.45749L6.85406 5.88717L6.59941 5.62155L6.34477 5.88327L6.44334 5.45749L6.18869 5.19577H6.50084L6.59941 4.76999ZM8.37372 4.76999L8.47229 5.19577H8.78444L8.53253 5.45749L8.62837 5.88717L8.37372 5.62155L8.12181 5.88327L8.21765 5.45749L7.96574 5.19577H8.27788L8.37372 4.76999ZM10.1508 4.76999L10.2466 5.19577H10.5615L10.3068 5.45749L10.4054 5.88717L10.1508 5.62155L9.89612 5.88327L9.99469 5.45749L9.74005 5.19577H10.0549L10.1508 4.76999ZM2.1609 5.84811L2.25674 6.27389H2.57162L2.31698 6.53561L2.41281 6.96139L2.1609 6.69577L1.90626 6.96139L2.00209 6.5317L1.75018 6.26999H2.06233L2.1609 5.84811ZM3.93521 5.84811L4.03378 6.27389H4.34593L4.09128 6.53561L4.18986 6.96139L3.93521 6.69577L3.68056 6.96139L3.77914 6.5317L3.52449 6.26999H3.83938L3.93521 5.84811ZM5.71226 5.84811L5.80809 6.27389H6.12298L5.86833 6.53561L5.96417 6.96139L5.71226 6.69577L5.45761 6.96139L5.55345 6.5317L5.30154 6.26999H5.61368L5.71226 5.84811ZM7.48657 5.84811L7.58514 6.27389H7.89728L7.64538 6.53561L7.74121 6.96139L7.48657 6.69577L7.23466 6.96139L7.33049 6.5317L7.07585 6.26999H7.39347L7.48657 5.84811ZM9.26361 5.84811L9.35945 6.27389H9.67433L9.41969 6.53561L9.51552 6.96139L9.26361 6.69577L9.00897 6.96139L9.1048 6.5317L8.85289 6.26999H9.16504L9.26361 5.84811ZM1.27101 6.92233L1.36958 7.35202H1.68173L1.42982 7.61374L1.52566 8.03561L1.27101 7.77389L1.0191 8.03561L1.11494 7.60983L0.860291 7.34811H1.17791L1.27101 6.92233ZM3.04806 6.92233L3.14389 7.35202H3.45878L3.20413 7.61374L3.3027 8.03561L3.04806 7.77389L2.79341 8.03561L2.89198 7.60983L2.63734 7.34811H2.94948L3.04806 6.92233ZM4.82237 6.92233L4.92094 7.35202H5.23035L4.97844 7.61374L5.07427 8.03561L4.81963 7.77389L4.56772 8.03561L4.66355 7.60983L4.40891 7.34811H4.72379L4.82237 6.92233ZM6.59941 6.92233L6.69525 7.35202H7.01013L6.75548 7.61374L6.85406 8.03561L6.59941 7.77389L6.34477 8.03561L6.44334 7.60983L6.18869 7.34811H6.50084L6.59941 6.92233ZM8.37372 6.92233L8.47229 7.35202H8.78444L8.53253 7.61374L8.62837 8.03561L8.37372 7.77389L8.12181 8.03561L8.21765 7.60983L7.96574 7.34811H8.27788L8.37372 6.92233ZM10.1508 6.92233L10.2466 7.35202H10.5615L10.3068 7.61374L10.4054 8.03561L10.1508 7.77389L9.89612 8.03561L9.99469 7.60983L9.74005 7.34811H10.0549L10.1508 6.92233ZM2.1609 8.00045L2.25674 8.42624H2.57162L2.31698 8.68795L2.41281 9.11764L2.1609 8.85202L1.90626 9.11374L2.00209 8.68795L1.75018 8.42624H2.06233L2.1609 8.00045ZM3.93521 8.00045L4.03378 8.42624H4.34593L4.09128 8.68795L4.18986 9.11764L3.93521 8.85202L3.68056 9.11374L3.77914 8.68795L3.52449 8.42624H3.83938L3.93521 8.00045ZM5.71226 8.00045L5.80809 8.42624H6.12298L5.86833 8.68795L5.96417 9.11764L5.71226 8.85202L5.45761 9.11374L5.55345 8.68795L5.30154 8.42624H5.61368L5.71226 8.00045ZM7.48657 8.00045L7.58514 8.42624H7.89728L7.64538 8.68795L7.74121 9.11764L7.48657 8.85202L7.23466 9.11374L7.33049 8.68795L7.07585 8.42624H7.39347L7.48657 8.00045ZM9.26361 8.00045L9.35945 8.42624H9.67433L9.41969 8.68795L9.51552 9.11764L9.26361 8.85202L9.00897 9.11374L9.1048 8.68795L8.85289 8.42624H9.16504L9.26361 8.00045ZM1.27101 9.07858L1.36958 9.50436H1.68173L1.42982 9.76608L1.52566 10.1919L1.27101 9.93014L1.0191 10.1919L1.11494 9.76217L0.860291 9.50045H1.17791L1.27101 9.07858ZM3.04806 9.07858L3.14389 9.50436H3.45878L3.20413 9.76608L3.3027 10.1919L3.04806 9.93014L2.79341 10.1919L2.89198 9.76217L2.63734 9.50045H2.94948L3.04806 9.07858ZM4.82237 9.07858L4.92094 9.50436H5.23035L4.98391 9.76608L5.07975 10.1919L4.8251 9.93014L4.5732 10.1919L4.66903 9.76217L4.41438 9.50045H4.72927L4.82237 9.07858ZM6.59941 9.07858L6.69525 9.50436H7.01013L6.75548 9.76608L6.85406 10.1919L6.59941 9.93014L6.34477 10.1919L6.44334 9.76217L6.18869 9.50045H6.50084L6.59941 9.07858ZM8.37372 9.07858L8.47229 9.50436H8.78444L8.53253 9.76608L8.62837 10.1919L8.37372 9.93014L8.12181 10.1919L8.21765 9.76217L7.96574 9.50045H8.27788L8.37372 9.07858ZM10.1508 9.07858L10.2466 9.50436H10.5615L10.3068 9.76608L10.4054 10.1919L10.1508 9.93014L9.89612 10.1919L9.99469 9.76217L9.74005 9.50045H10.0549L10.1508 9.07858Z" fill="white"/>
</g>
<defs>
<clipPath id="clip0">
<rect width="27" height="20" fill="white" transform="translate(0.0377808)"/>
</clipPath>
</defs>
</svg>
