<?xml version="1.0" standalone="no"?>
<!DOCTYPE svg PUBLIC "-//W3C//DTD SVG 20010904//EN"
 "http://www.w3.org/TR/2001/REC-SVG-20010904/DTD/svg10.dtd">
<svg version="1.0" xmlns="http://www.w3.org/2000/svg"
 width="400.000000pt" height="267.000000pt" viewBox="0 0 400.000000 267.000000"
 preserveAspectRatio="xMidYMid meet">
<metadata>
Created by potrace 1.16, written by Peter Selinger 2001-2019
</metadata>
<g transform="translate(0.000000,267.000000) scale(0.100000,-0.100000)"
fill="#000000" stroke="none">
<path d="M1499 1540 c-63 -11 -83 -23 -157 -93 -48 -47 -66 -72 -77 -110 -14
-47 -14 -52 5 -81 24 -39 103 -116 154 -150 21 -14 33 -26 25 -26 -17 0 -81
38 -91 54 -6 8 -8 8 -8 0 0 -6 19 -24 43 -39 64 -43 118 -41 185 8 29 22 49
43 45 50 -4 7 0 8 11 4 9 -4 15 -3 13 1 -7 10 19 32 27 24 4 -3 4 2 0 12 -5
13 -4 17 3 13 6 -4 14 0 17 9 4 10 2 13 -6 8 -7 -5 -8 -3 -4 5 5 7 13 10 20 8
7 -3 19 8 28 24 10 16 13 29 8 29 -5 0 -12 -9 -15 -21 -4 -11 -9 -18 -12 -15
-3 2 2 19 11 37 9 18 16 37 15 43 0 6 -4 2 -8 -9 -7 -17 -10 -14 -20 21 -6 22
-28 60 -48 85 -52 61 -60 69 -71 69 -14 0 -52 36 -45 44 3 3 4 5 2 5 -2 -1
-25 -5 -50 -9z m22 -35 c30 5 40 0 88 -42 90 -79 102 -138 45 -224 -46 -71
-124 -129 -173 -129 -20 0 -44 7 -54 14 -15 12 -12 13 30 10 l48 -4 -48 13
c-57 17 -121 74 -148 133 -26 57 -12 102 52 166 51 51 109 84 120 67 3 -5 21
-7 40 -4z"/>
<path d="M1911 1467 c-46 -23 -66 -62 -66 -132 0 -77 22 -113 82 -134 35 -13
46 -13 79 0 27 10 40 22 42 37 4 25 0 26 -44 10 -67 -24 -116 39 -94 120 5 22
17 45 25 52 15 12 64 10 98 -5 13 -5 17 -2 17 13 0 44 -84 68 -139 39z"/>
<path d="M2080 1476 c-3 -2 -4 -65 -2 -140 l3 -136 75 0 c67 0 74 2 74 19 0
17 -8 20 -47 23 l-48 3 -5 115 c-5 106 -7 115 -25 118 -12 2 -23 1 -25 -2z"/>
<path d="M2257 1474 c-4 -4 -7 -67 -7 -141 l0 -133 30 0 31 0 -3 138 c-3 129
-4 137 -23 140 -12 2 -24 0 -28 -4z"/>
<path d="M2406 1461 c-42 -28 -55 -58 -56 -127 0 -109 61 -161 159 -134 34 9
41 15 41 36 0 21 -4 25 -17 19 -46 -17 -69 -16 -96 5 -23 19 -27 29 -27 76 0
84 44 113 123 79 14 -6 17 -2 17 19 0 46 -89 63 -144 27z"/>
<path d="M2587 1474 c-4 -4 -7 -67 -7 -141 l0 -133 30 0 c29 0 29 1 32 63 l3
62 39 -62 c33 -54 43 -63 67 -63 16 0 29 5 29 11 0 5 -18 37 -40 69 -22 32
-40 62 -40 65 0 4 18 32 40 62 42 59 43 73 6 73 -16 0 -33 -16 -62 -60 l-39
-60 -5 58 c-4 48 -8 57 -25 60 -12 2 -24 0 -28 -4z"/>
</g>
</svg>
