<?xml version="1.0" standalone="no"?>
<!DOCTYPE svg PUBLIC "-//W3C//DTD SVG 20010904//EN"
 "http://www.w3.org/TR/2001/REC-SVG-20010904/DTD/svg10.dtd">
<svg version="1.0" xmlns="http://www.w3.org/2000/svg"
 width="600.000000pt" height="400.000000pt" viewBox="0 0 600.000000 400.000000"
 preserveAspectRatio="xMidYMid meet">
<metadata>
Created by potrace 1.16, written by Peter Selinger 2001-2019
</metadata>
<g transform="translate(0.000000,400.000000) scale(0.100000,-0.100000)"
fill="#000000" stroke="none">
<path d="M1431 2362 c-7 -13 -11 -97 -11 -227 l0 -206 30 -44 c16 -23 51 -62
77 -85 l48 -42 6 51 c4 28 12 57 18 65 8 9 46 15 119 19 129 6 170 19 227 69
56 49 80 115 73 202 -6 70 -24 111 -67 152 -53 50 -89 57 -308 62 -194 4 -202
3 -212 -16z m351 -122 c21 -6 44 -21 53 -33 17 -25 20 -109 4 -139 -17 -32
-71 -48 -158 -48 -69 0 -82 3 -91 19 -14 28 -13 184 2 199 15 15 139 16 190 2z"/>
<path d="M2217 2169 c-82 -17 -146 -71 -150 -127 -2 -27 -1 -27 63 -29 63 -3
66 -2 85 29 24 39 77 54 136 38 43 -12 59 -33 59 -79 0 -41 -17 -48 -135 -53
-148 -7 -207 -44 -234 -144 -21 -79 14 -159 83 -191 62 -28 172 -23 237 10 61
32 59 32 59 8 0 -23 21 -28 96 -23 51 4 52 4 58 40 3 21 5 98 5 172 -1 243
-14 284 -101 328 -53 27 -183 37 -261 21z m193 -349 c20 -76 -22 -120 -116
-120 -68 0 -98 23 -96 74 1 20 4 42 8 47 13 22 70 38 131 39 l62 0 11 -40z"/>
<path d="M2620 2149 c0 -10 89 -265 112 -319 5 -14 26 -69 45 -123 33 -94 35
-108 18 -150 -7 -18 -6 -18 32 1 55 28 135 103 171 159 25 39 109 254 160 411
l11 33 -77 -3 -77 -3 -59 -157 c-33 -87 -62 -158 -66 -158 -3 0 -23 48 -44
108 -22 59 -48 131 -58 160 l-19 52 -75 0 c-47 0 -74 -4 -74 -11z"/>
<path d="M1422 1723 l3 -108 78 -3 77 -3 0 61 0 61 -37 16 c-21 8 -57 31 -81
50 l-43 35 3 -109z"/>
<path d="M2930 1593 c-73 -57 -136 -83 -206 -83 -67 0 -74 -6 -74 -61 0 -57
14 -69 81 -69 75 0 119 20 159 71 28 35 95 168 88 174 -2 2 -23 -13 -48 -32z"/>
</g>
</svg>
