<svg width="575" height="274" viewBox="0 0 575 274" fill="none" xmlns="http://www.w3.org/2000/svg">
<path d="M0.659431 124.44C-14.4756 288.97 235.614 347.863 268.459 139.678H211.11C211.11 176.434 198.343 194.967 163.439 211.338L148.304 194.967C100.016 250.36 13.7353 179.935 70.4663 119.498L49.4624 96.5374C27.326 94.2723 8.07251 95.096 0.659431 124.44Z" fill="black"/>
<path d="M479.34 148.75C494.479 -15.78 244.332 -74.673 211.48 133.512H268.842C268.842 96.7552 281.612 78.2224 316.524 61.8518L331.662 78.2224C379.961 22.83 466.262 93.2546 409.518 153.692L430.526 176.652C452.668 178.917 471.926 178.093 479.34 148.75Z" fill="#FF6700"/>
<path fill-rule="evenodd" clip-rule="evenodd" d="M106.049 204.684C129.818 204.684 149.086 185.416 149.086 161.647C149.086 161.032 149.073 160.42 149.048 159.811C149.62 159.31 150.168 158.782 150.71 158.26C151.267 157.724 151.817 157.194 152.381 156.705C153.443 155.785 154.169 154.841 154.851 153.956C155.16 153.553 155.461 153.163 155.779 152.793C156.603 151.454 157.323 150.116 157.735 148.88C158.147 147.645 158.472 145.238 158.044 143.938C157.616 142.639 157.3 142.009 156.191 140.952C155.081 139.896 153.823 139.305 151.866 138.741C150.446 138.169 148.7 138.041 147.02 137.917C146.781 137.9 146.542 137.882 146.307 137.864C145.453 137.796 143.753 137.839 141.975 137.941C134.273 126.293 121.058 118.61 106.049 118.61C82.2802 118.61 63.0117 137.878 63.0117 161.647C63.0117 185.416 82.2802 204.684 106.049 204.684Z" fill="black"/>
<path fill-rule="evenodd" clip-rule="evenodd" d="M375.079 67.9537C351.31 67.9537 332.041 87.2222 332.041 110.991C332.041 111.606 332.054 112.219 332.08 112.828C331.507 113.329 330.959 113.856 330.418 114.378C329.861 114.914 329.311 115.444 328.747 115.933C327.685 116.853 326.959 117.797 326.277 118.683C325.968 119.085 325.667 119.475 325.349 119.846C324.525 121.184 323.805 122.523 323.393 123.758C322.981 124.994 322.656 127.401 323.084 128.7C323.512 130 323.827 130.63 324.937 131.686C326.047 132.743 327.305 133.333 329.262 133.898C330.682 134.469 332.428 134.598 334.108 134.721C334.347 134.739 334.586 134.756 334.821 134.775C335.675 134.843 337.375 134.799 339.153 134.697C346.855 146.345 360.07 154.028 375.079 154.028C398.848 154.028 418.116 134.76 418.116 110.991C418.116 87.2222 398.848 67.9537 375.079 67.9537Z" fill="#FF6700"/>
<path d="M93.811 23.058C95.957 23.058 97.61 23.522 98.77 24.45C99.988 25.378 100.597 26.654 100.597 28.278C100.597 29.09 100.481 29.873 100.249 30.627L97.987 38.718C97.581 40.284 96.972 41.386 96.16 42.024C95.406 42.604 94.304 42.894 92.854 42.894C91.462 42.894 90.36 42.604 89.548 42.024C88.794 41.386 88.214 40.371 87.808 38.979L86.416 34.02C86.126 32.976 85.778 32.28 85.372 31.932C84.966 31.584 84.183 31.41 83.023 31.41H73.888L69.538 46.896H73.366C73.772 46.896 74.323 46.606 75.019 46.026L77.977 43.416C78.847 42.662 79.601 42.111 80.239 41.763C80.877 41.415 81.66 41.241 82.588 41.241C83.632 41.241 84.473 41.531 85.111 42.111C85.807 42.633 86.155 43.329 86.155 44.199C86.155 44.431 86.097 44.779 85.981 45.243L82.414 57.336C82.066 58.612 81.457 59.569 80.587 60.207C79.775 60.787 78.876 61.077 77.89 61.077C76.266 61.077 75.048 60.236 74.236 58.554L72.757 55.509C72.351 54.639 71.713 54.204 70.843 54.204H67.45L62.317 72.648H69.973C71.075 72.648 72.032 72.445 72.844 72.039C73.714 71.575 74.642 70.792 75.628 69.69L80.848 63.948C81.776 62.962 82.646 62.266 83.458 61.86C84.328 61.396 85.372 61.164 86.59 61.164C87.866 61.164 88.91 61.454 89.722 62.034C90.534 62.614 90.94 63.484 90.94 64.644C90.94 65.108 90.853 65.659 90.679 66.297L88.156 75.084C87.518 77.288 86.59 78.825 85.372 79.695C84.154 80.565 82.385 81 80.065 81H38.566C37.348 81 36.42 80.797 35.782 80.391C35.086 79.985 34.738 79.434 34.738 78.738C34.738 78.39 34.825 78.013 34.999 77.607C35.231 76.969 35.608 76.476 36.13 76.128C36.652 75.78 36.971 75.577 37.087 75.519C38.015 74.939 38.769 74.359 39.349 73.779C39.929 73.141 40.422 72.126 40.828 70.734L51.529 33.237C51.761 32.483 51.877 31.787 51.877 31.149C51.877 30.453 51.761 29.873 51.529 29.409C51.355 28.945 51.065 28.452 50.659 27.93C50.137 27.176 49.876 26.567 49.876 26.103C49.876 25.929 49.934 25.61 50.05 25.146C50.282 24.392 50.804 23.87 51.616 23.58C52.428 23.232 53.617 23.058 55.183 23.058H93.811ZM148.633 23.058C152.577 23.058 155.999 23.667 158.899 24.885C161.857 26.045 164.09 27.669 165.598 29.757C167.164 31.787 167.947 34.136 167.947 36.804C167.947 38.312 167.744 39.704 167.338 40.98C165.656 46.838 160.813 50.55 152.809 52.116C155.593 52.928 157.797 54.291 159.421 56.205C161.045 58.061 161.857 60.381 161.857 63.165C161.857 64.441 161.625 65.949 161.161 67.689C159.885 72.213 157.304 75.577 153.418 77.781C149.59 79.927 144.138 81 137.062 81H100.87C99.6516 81 98.7236 80.797 98.0856 80.391C97.3896 79.985 97.0416 79.434 97.0416 78.738C97.0416 78.39 97.1286 78.013 97.3026 77.607C97.5346 76.969 97.9116 76.476 98.4336 76.128C98.9556 75.78 99.2746 75.577 99.3906 75.519C100.319 74.939 101.073 74.359 101.653 73.779C102.233 73.141 102.726 72.126 103.132 70.734L113.746 33.237C113.978 32.483 114.094 31.758 114.094 31.062C114.094 30.424 113.978 29.902 113.746 29.496C113.572 29.032 113.311 28.51 112.963 27.93C112.441 27.176 112.18 26.567 112.18 26.103C112.18 25.929 112.238 25.61 112.354 25.146C112.586 24.392 113.079 23.87 113.833 23.58C114.645 23.232 115.863 23.058 117.487 23.058H148.633ZM144.718 38.979C145.124 37.703 145.327 36.514 145.327 35.412C145.327 32.396 143.616 30.888 140.194 30.888H136.279L131.668 47.157H135.496C137.932 47.157 139.846 46.577 141.238 45.417C142.688 44.199 143.848 42.053 144.718 38.979ZM138.367 64.557C138.773 63.165 138.976 61.889 138.976 60.729C138.976 57.597 137.178 56.031 133.582 56.031H129.232L124.273 73.17H128.71C131.204 73.17 133.205 72.561 134.713 71.343C136.221 70.067 137.439 67.805 138.367 64.557ZM202.811 22.536C206.059 22.536 209.046 22.942 211.772 23.754C214.556 24.508 217.369 25.726 220.211 27.408L222.212 25.755C223.604 24.653 224.735 23.899 225.605 23.493C226.533 23.087 227.577 22.884 228.737 22.884C230.129 22.884 231.231 23.203 232.043 23.841C232.855 24.421 233.261 25.291 233.261 26.451C233.261 26.915 233.174 27.408 233 27.93L229.346 39.936C228.94 41.328 228.418 42.314 227.78 42.894C227.2 43.474 226.301 43.764 225.083 43.764C223.807 43.764 222.676 43.387 221.69 42.633C220.762 41.821 219.283 40.197 217.253 37.761C215.223 35.441 213.367 33.817 211.685 32.889C210.061 31.903 208.379 31.41 206.639 31.41C205.363 31.41 204.29 31.845 203.42 32.715C202.55 33.527 202.115 34.542 202.115 35.76C202.115 37.152 202.811 38.457 204.203 39.675C205.595 40.835 207.77 42.314 210.728 44.112C213.744 45.91 216.238 47.534 218.21 48.984C220.182 50.434 221.864 52.232 223.256 54.378C224.648 56.524 225.344 58.989 225.344 61.773C225.344 63.571 225.054 65.369 224.474 67.167C223.082 71.807 220.385 75.345 216.383 77.781C212.381 80.159 207.712 81.348 202.376 81.348C198.374 81.348 195.01 80.884 192.284 79.956C189.558 79.028 186.774 77.462 183.932 75.258L180.8 77.868C179.35 79.086 178.161 79.927 177.233 80.391C176.305 80.797 175.261 81 174.101 81C172.767 81 171.694 80.681 170.882 80.043C170.128 79.405 169.751 78.535 169.751 77.433C169.751 76.853 169.867 76.244 170.099 75.606L174.362 62.643C174.826 61.135 175.464 60.062 176.276 59.424C177.088 58.786 178.132 58.467 179.408 58.467C180.742 58.467 181.931 58.931 182.975 59.859C184.077 60.787 185.498 62.469 187.238 64.905C189.094 67.573 190.805 69.429 192.371 70.473C193.995 71.517 195.909 72.039 198.113 72.039C199.679 72.039 200.868 71.807 201.68 71.343C202.55 70.821 203.159 70.009 203.507 68.907C203.623 68.617 203.681 68.182 203.681 67.602C203.681 66.21 203.014 64.934 201.68 63.774C200.346 62.614 198.287 61.222 195.503 59.598C192.545 57.8 190.138 56.205 188.282 54.813C186.426 53.363 184.802 51.565 183.41 49.419C182.076 47.273 181.409 44.75 181.409 41.85C181.409 39.82 181.728 37.819 182.366 35.847C183.584 31.845 186.078 28.626 189.848 26.19C193.618 23.754 197.939 22.536 202.811 22.536Z" fill="url(#paint0_linear)"/>
<path d="M281.704 233.288C279.016 233.288 276.6 232.792 274.456 231.8C272.312 230.808 270.6 229.352 269.32 227.432C268.072 225.48 267.448 223.128 267.448 220.376C267.448 218.456 267.784 216.376 268.456 214.136C269.928 209.336 272.152 205.88 275.128 203.768C278.104 201.624 281.288 200.552 284.68 200.552C286.504 200.552 288.12 200.824 289.528 201.368C290.936 201.912 292.232 202.696 293.416 203.72L294.712 202.712C295.576 202.04 296.296 201.576 296.872 201.32C297.48 201.064 298.152 200.936 298.888 200.936C299.688 200.936 300.328 201.112 300.808 201.464C301.288 201.816 301.528 202.328 301.528 203C301.528 203.352 301.464 203.704 301.336 204.056L298.648 211.544C298.36 212.408 298.008 213.016 297.592 213.368C297.208 213.72 296.616 213.896 295.816 213.896C294.984 213.896 294.296 213.608 293.752 213.032C293.24 212.424 292.648 211.4 291.976 209.96C291.208 208.456 290.584 207.464 290.104 206.984C289.624 206.504 288.92 206.264 287.992 206.264C286.68 206.264 285.416 207.08 284.2 208.712C282.984 210.312 281.88 212.728 280.888 215.96C280.056 218.68 279.64 220.952 279.64 222.776C279.64 224.376 279.944 225.576 280.552 226.376C281.16 227.144 281.976 227.528 283 227.528C284.504 227.528 285.736 227.192 286.696 226.52C287.688 225.848 288.696 224.936 289.72 223.784C290.36 223.08 290.872 222.568 291.256 222.248C291.672 221.896 292.104 221.72 292.552 221.72C293.128 221.72 293.736 222.008 294.376 222.584C295.016 223.16 295.32 223.736 295.288 224.312C295.32 225.016 294.744 226.104 293.56 227.576C292.408 229.048 290.792 230.376 288.712 231.56C286.664 232.712 284.328 233.288 281.704 233.288ZM319.45 207.608C323.802 207.608 327.002 208.488 329.05 210.248C331.13 212.008 332.17 214.312 332.17 217.16C332.17 218.12 332.042 219.192 331.786 220.376C331.178 223 330.042 225.304 328.378 227.288C326.714 229.24 324.666 230.76 322.234 231.848C319.834 232.904 317.226 233.432 314.41 233.432C309.962 233.432 306.666 232.552 304.522 230.792C302.41 229 301.354 226.632 301.354 223.688C301.354 222.696 301.482 221.592 301.738 220.376C302.346 217.88 303.498 215.672 305.194 213.752C306.922 211.8 309.018 210.296 311.482 209.24C313.978 208.152 316.634 207.608 319.45 207.608ZM319.306 211.88C318.634 211.88 317.914 212.488 317.146 213.704C316.41 214.888 315.53 217.144 314.506 220.472C313.482 223.8 312.97 226.136 312.97 227.48C312.97 228.184 313.082 228.664 313.306 228.92C313.53 229.144 313.834 229.256 314.218 229.256C314.89 229.32 315.578 228.744 316.282 227.528C317.018 226.312 317.93 223.944 319.018 220.424C320.01 217.32 320.506 215.064 320.506 213.656C320.506 212.984 320.394 212.52 320.17 212.264C319.978 212.008 319.69 211.88 319.306 211.88ZM364.726 226.376C364.662 226.504 364.63 226.696 364.63 226.952C364.63 227.176 364.678 227.352 364.774 227.48C364.902 227.608 365.062 227.672 365.254 227.672C365.638 227.672 365.958 227.512 366.214 227.192C366.502 226.84 366.694 226.664 366.79 226.664C366.95 226.664 367.078 226.776 367.174 227C367.27 227.192 367.318 227.432 367.318 227.72C367.35 228.648 367.046 229.56 366.406 230.456C365.766 231.32 364.822 232.04 363.574 232.616C362.358 233.16 360.886 233.432 359.158 233.432C357.046 233.432 355.366 232.952 354.118 231.992C352.87 231 352.23 229.688 352.198 228.056C352.198 226.872 352.486 225.544 353.062 224.072L355.702 217.16C355.862 216.744 355.942 216.408 355.942 216.152C355.942 215.736 355.798 215.416 355.51 215.192C355.254 214.936 354.934 214.808 354.55 214.808C353.846 214.808 353.174 215.144 352.534 215.816C351.894 216.456 351.43 217.256 351.142 218.216L348.166 228.008C348.038 228.36 347.974 228.696 347.974 229.016C347.974 229.4 348.054 229.72 348.214 229.976C348.374 230.2 348.598 230.44 348.886 230.696C349.11 230.888 349.27 231.064 349.366 231.224C349.462 231.384 349.478 231.576 349.414 231.8C349.286 232.216 348.982 232.52 348.502 232.712C348.022 232.904 347.27 233 346.246 233H335.302C334.47 233 333.878 232.872 333.526 232.616C333.142 232.328 332.998 231.96 333.094 231.512C333.222 231.128 333.558 230.792 334.102 230.504C334.582 230.248 334.982 229.944 335.302 229.592C335.622 229.24 335.894 228.68 336.118 227.912L340.39 214.04C340.454 213.88 340.486 213.656 340.486 213.368C340.486 213.016 340.406 212.744 340.246 212.552C340.118 212.36 339.894 212.12 339.574 211.832C339.254 211.576 339.03 211.352 338.902 211.16C338.774 210.968 338.758 210.712 338.854 210.392C339.046 209.656 340.054 209.016 341.878 208.472C343.702 207.896 345.606 207.608 347.59 207.608C349.19 207.608 350.454 208.056 351.382 208.952C352.31 209.816 352.726 211.032 352.63 212.6C353.942 210.712 355.334 209.416 356.806 208.712C358.278 207.976 359.878 207.608 361.606 207.608C363.558 207.608 365.126 208.2 366.31 209.384C367.526 210.568 368.134 212.104 368.134 213.992C368.134 214.984 367.974 215.96 367.654 216.92L364.726 226.376ZM387.806 207.176C390.462 207.176 392.75 207.416 394.67 207.896C396.622 208.376 398.11 209.048 399.134 209.912C400.19 210.776 400.718 211.752 400.718 212.84C400.718 213.96 400.27 214.872 399.374 215.576C398.51 216.28 397.294 216.632 395.726 216.632C394.126 216.632 392.766 216.232 391.646 215.432C390.558 214.632 390.014 213.624 390.014 212.408C390.014 211.992 390.078 211.592 390.206 211.208C389.63 211.048 389.118 210.968 388.67 210.968C387.87 210.968 387.198 211.16 386.654 211.544C386.142 211.928 385.902 212.472 385.934 213.176C385.934 214.008 386.35 214.712 387.182 215.288C388.014 215.864 389.358 216.584 391.214 217.448C392.814 218.152 394.126 218.808 395.15 219.416C396.206 219.992 397.086 220.728 397.79 221.624C398.526 222.52 398.894 223.576 398.894 224.792C398.894 225.048 398.83 225.528 398.702 226.232C398.19 228.376 396.766 230.072 394.43 231.32C392.094 232.568 389.022 233.192 385.214 233.192C380.926 233.192 377.518 232.616 374.99 231.464C372.494 230.312 371.246 228.728 371.246 226.712C371.246 225.336 371.662 224.296 372.494 223.592C373.326 222.888 374.43 222.536 375.806 222.536C377.406 222.536 378.766 223.032 379.886 224.024C381.038 225.016 381.614 226.28 381.614 227.816C381.614 228.232 381.566 228.664 381.47 229.112C382.238 229.304 382.974 229.4 383.678 229.4C384.51 229.4 385.198 229.176 385.742 228.728C386.286 228.28 386.558 227.656 386.558 226.856C386.526 226.12 386.158 225.496 385.454 224.984C384.75 224.44 383.63 223.8 382.094 223.064C380.654 222.392 379.47 221.768 378.542 221.192C377.614 220.584 376.814 219.832 376.142 218.936C375.502 218.04 375.182 216.984 375.182 215.768C375.182 213.144 376.27 211.064 378.446 209.528C380.654 207.96 383.774 207.176 387.806 207.176ZM431.619 226.376C431.555 226.632 431.523 226.824 431.523 226.952C431.523 227.176 431.571 227.352 431.667 227.48C431.795 227.608 431.955 227.672 432.147 227.672C432.531 227.672 432.851 227.512 433.107 227.192C433.395 226.84 433.587 226.664 433.683 226.664C433.843 226.664 433.971 226.776 434.067 227C434.195 227.192 434.259 227.432 434.259 227.72C434.291 228.616 433.971 229.512 433.299 230.408C432.627 231.272 431.683 231.992 430.467 232.568C429.251 233.144 427.891 233.432 426.387 233.432C424.499 233.432 422.995 233.048 421.875 232.28C420.755 231.512 420.035 230.504 419.715 229.256C418.563 230.536 417.283 231.512 415.875 232.184C414.499 232.824 413.091 233.144 411.651 233.144C409.411 233.144 407.523 232.6 405.987 231.512C404.483 230.392 403.731 228.84 403.731 226.856C403.731 225.96 403.891 225.032 404.211 224.072L407.283 214.04C407.379 213.752 407.427 213.512 407.427 213.32C407.427 212.968 407.347 212.696 407.187 212.504C407.027 212.28 406.787 212.056 406.467 211.832C406.147 211.576 405.923 211.352 405.795 211.16C405.667 210.968 405.651 210.712 405.747 210.392C405.939 209.656 406.947 209.016 408.771 208.472C410.595 207.896 412.499 207.608 414.483 207.608C416.339 207.608 417.699 207.96 418.563 208.664C419.427 209.368 419.859 210.328 419.859 211.544C419.859 212.28 419.747 212.984 419.523 213.656L416.499 223.64C416.371 223.992 416.307 224.328 416.307 224.648C416.307 225.096 416.435 225.432 416.691 225.656C416.947 225.88 417.283 225.992 417.699 225.992C418.307 225.992 418.803 225.816 419.187 225.464C419.571 225.112 419.955 224.52 420.339 223.688L423.267 214.04C423.363 213.752 423.411 213.512 423.411 213.32C423.411 212.968 423.331 212.696 423.171 212.504C423.011 212.28 422.787 212.056 422.499 211.832C422.179 211.576 421.955 211.352 421.827 211.16C421.699 210.968 421.683 210.712 421.779 210.392C421.939 209.656 422.931 209.016 424.755 208.472C426.579 207.896 428.483 207.608 430.467 207.608C432.323 207.608 433.683 207.96 434.547 208.664C435.443 209.368 435.891 210.312 435.891 211.496C435.891 212.104 435.763 212.824 435.507 213.656L431.619 226.376ZM453.965 197.528C455.821 197.528 457.181 197.88 458.045 198.584C458.941 199.288 459.389 200.248 459.389 201.464C459.389 202.168 459.277 202.856 459.053 203.528L451.517 228.008C451.421 228.392 451.373 228.728 451.373 229.016C451.373 229.432 451.453 229.768 451.613 230.024C451.773 230.248 451.997 230.472 452.285 230.696C452.509 230.92 452.669 231.112 452.765 231.272C452.861 231.4 452.877 231.576 452.813 231.8C452.653 232.216 452.333 232.52 451.853 232.712C451.373 232.904 450.637 233 449.645 233H438.701C437.869 233 437.261 232.872 436.877 232.616C436.493 232.328 436.365 231.96 436.493 231.512C436.621 231.128 436.957 230.792 437.501 230.504C437.981 230.248 438.381 229.944 438.701 229.592C439.021 229.24 439.293 228.68 439.517 227.912L446.813 203.96C446.909 203.672 446.957 203.432 446.957 203.24C446.957 202.888 446.861 202.6 446.669 202.376C446.509 202.152 446.285 201.928 445.997 201.704C445.677 201.448 445.437 201.224 445.277 201.032C445.149 200.84 445.133 200.584 445.229 200.264C445.421 199.528 446.429 198.888 448.253 198.344C450.077 197.8 451.981 197.528 453.965 197.528ZM480.327 208.232C480.935 208.232 481.399 208.36 481.719 208.616C482.071 208.872 482.247 209.224 482.247 209.672C482.247 209.8 482.215 210.024 482.151 210.344C481.735 211.752 480.775 212.456 479.271 212.456H476.487L472.887 224.312C472.727 224.792 472.647 225.288 472.647 225.8C472.647 226.376 472.807 226.776 473.127 227C473.447 227.224 473.895 227.336 474.471 227.336C474.983 227.336 475.623 227.272 476.391 227.144C476.775 227.048 477.111 227 477.399 227C477.623 227 477.783 227.08 477.879 227.24C478.007 227.368 478.071 227.544 478.071 227.768C478.103 228.408 477.623 229.192 476.631 230.12C475.671 231.016 474.359 231.8 472.695 232.472C471.031 233.112 469.191 233.432 467.175 233.432C464.999 233.432 463.255 232.936 461.943 231.944C460.631 230.952 459.975 229.592 459.975 227.864C459.975 227.064 460.103 226.296 460.359 225.56L463.431 216.056C463.591 215.512 463.671 215.08 463.671 214.76C463.671 214.12 463.511 213.576 463.191 213.128C462.903 212.68 462.487 212.216 461.943 211.736C461.463 211.288 461.127 210.92 460.935 210.632C460.743 210.312 460.695 209.944 460.791 209.528C460.919 209.112 461.191 208.792 461.607 208.568C462.023 208.344 462.679 208.232 463.575 208.232H466.263L469.287 205.208C470.343 204.152 471.303 203.416 472.167 203C473.063 202.584 474.215 202.376 475.623 202.376C477.639 202.376 478.647 203.144 478.647 204.68C478.647 205.16 478.583 205.608 478.455 206.024L477.783 208.232H480.327ZM494.76 207.608C496.616 207.608 497.976 207.96 498.84 208.664C499.704 209.368 500.136 210.328 500.136 211.544C500.136 212.28 500.024 212.984 499.8 213.656L495.384 228.008C495.288 228.392 495.24 228.728 495.24 229.016C495.24 229.432 495.32 229.768 495.48 230.024C495.64 230.248 495.864 230.472 496.152 230.696C496.376 230.92 496.536 231.112 496.632 231.272C496.728 231.4 496.744 231.576 496.68 231.8C496.52 232.216 496.2 232.52 495.72 232.712C495.24 232.904 494.504 233 493.512 233H482.568C481.736 233 481.128 232.872 480.744 232.616C480.36 232.328 480.232 231.96 480.36 231.512C480.488 231.128 480.824 230.792 481.368 230.504C481.848 230.248 482.248 229.944 482.568 229.592C482.888 229.24 483.16 228.68 483.384 227.912L487.56 214.04C487.656 213.752 487.704 213.512 487.704 213.32C487.704 212.968 487.624 212.696 487.464 212.504C487.304 212.28 487.064 212.056 486.744 211.832C486.424 211.576 486.2 211.352 486.072 211.16C485.944 210.968 485.928 210.712 486.024 210.392C486.216 209.656 487.224 209.016 489.048 208.472C490.872 207.896 492.776 207.608 494.76 207.608ZM497.976 197C499.224 197 500.264 197.416 501.096 198.248C501.928 199.048 502.344 200.04 502.344 201.224C502.344 202.056 502.12 202.872 501.672 203.672C501.256 204.472 500.648 205.128 499.848 205.64C499.08 206.12 498.216 206.36 497.256 206.36C496.04 206.36 495.016 205.96 494.184 205.16C493.384 204.328 492.968 203.304 492.936 202.088C492.936 201.288 493.144 200.504 493.56 199.736C493.976 198.936 494.568 198.28 495.336 197.768C496.104 197.256 496.984 197 497.976 197ZM532.066 226.376C532.002 226.504 531.97 226.696 531.97 226.952C531.97 227.176 532.018 227.352 532.114 227.48C532.242 227.608 532.402 227.672 532.594 227.672C532.978 227.672 533.298 227.512 533.554 227.192C533.842 226.84 534.034 226.664 534.13 226.664C534.29 226.664 534.418 226.776 534.514 227C534.61 227.192 534.658 227.432 534.658 227.72C534.69 228.648 534.386 229.56 533.746 230.456C533.106 231.32 532.162 232.04 530.914 232.616C529.698 233.16 528.226 233.432 526.498 233.432C524.386 233.432 522.706 232.952 521.458 231.992C520.21 231 519.57 229.688 519.538 228.056C519.538 226.872 519.826 225.544 520.402 224.072L523.042 217.16C523.202 216.744 523.282 216.408 523.282 216.152C523.282 215.736 523.138 215.416 522.85 215.192C522.594 214.936 522.274 214.808 521.89 214.808C521.186 214.808 520.514 215.144 519.874 215.816C519.234 216.456 518.77 217.256 518.482 218.216L515.506 228.008C515.378 228.36 515.314 228.696 515.314 229.016C515.314 229.4 515.394 229.72 515.554 229.976C515.714 230.2 515.938 230.44 516.226 230.696C516.45 230.888 516.61 231.064 516.706 231.224C516.802 231.384 516.818 231.576 516.754 231.8C516.626 232.216 516.322 232.52 515.842 232.712C515.362 232.904 514.61 233 513.586 233H502.642C501.81 233 501.218 232.872 500.866 232.616C500.482 232.328 500.338 231.96 500.434 231.512C500.562 231.128 500.898 230.792 501.442 230.504C501.922 230.248 502.322 229.944 502.642 229.592C502.962 229.24 503.234 228.68 503.458 227.912L507.73 214.04C507.794 213.88 507.826 213.656 507.826 213.368C507.826 213.016 507.746 212.744 507.586 212.552C507.458 212.36 507.234 212.12 506.914 211.832C506.594 211.576 506.37 211.352 506.242 211.16C506.114 210.968 506.098 210.712 506.194 210.392C506.386 209.656 507.394 209.016 509.218 208.472C511.042 207.896 512.946 207.608 514.93 207.608C516.53 207.608 517.794 208.056 518.722 208.952C519.65 209.816 520.066 211.032 519.97 212.6C521.282 210.712 522.674 209.416 524.146 208.712C525.618 207.976 527.218 207.608 528.946 207.608C530.898 207.608 532.466 208.2 533.65 209.384C534.866 210.568 535.474 212.104 535.474 213.992C535.474 214.984 535.314 215.96 534.994 216.92L532.066 226.376ZM568.442 199.784C569.466 199.784 570.458 200.008 571.418 200.456C572.41 200.872 573.21 201.464 573.818 202.232C574.458 202.968 574.778 203.768 574.778 204.632C574.778 206.52 573.498 207.464 570.938 207.464C570.202 207.464 569.626 207.416 569.21 207.32C568.826 207.192 568.362 207 567.818 206.744C567.722 206.968 567.674 207.288 567.674 207.704C567.674 208.216 567.754 208.824 567.914 209.528C568.106 210.232 568.33 210.888 568.586 211.496C569.258 212.488 569.594 213.672 569.594 215.048C569.594 215.656 569.514 216.392 569.354 217.256C568.97 218.92 568.122 220.44 566.81 221.816C565.53 223.192 563.866 224.28 561.818 225.08C559.802 225.848 557.578 226.232 555.146 226.232C553.29 226.232 551.546 226.104 549.914 225.848C549.434 226.264 549.194 226.776 549.194 227.384C549.194 227.8 549.386 228.152 549.77 228.44C550.154 228.696 550.794 228.824 551.69 228.824H558.89C561.354 228.824 563.274 229.256 564.65 230.12C566.026 230.952 566.714 232.152 566.714 233.72C566.714 234.296 566.618 234.888 566.426 235.496C566.042 236.744 565.162 237.896 563.786 238.952C562.442 240.04 560.538 240.92 558.074 241.592C555.61 242.264 552.618 242.6 549.098 242.6C545.962 242.6 543.306 242.328 541.13 241.784C538.954 241.24 537.338 240.488 536.282 239.528C535.194 238.6 534.65 237.56 534.65 236.408C534.65 236.152 534.714 235.768 534.842 235.256C535.13 234.328 535.786 233.576 536.81 233C537.802 232.392 539.45 231.992 541.754 231.8C540.986 231.064 540.602 230.184 540.602 229.16C540.602 228.808 540.65 228.44 540.746 228.056C541.258 226.392 542.762 225.16 545.258 224.36C542.858 223.048 541.658 221.128 541.658 218.6C541.658 217.896 541.754 217.16 541.946 216.392C542.33 214.728 543.178 213.224 544.49 211.88C545.802 210.504 547.482 209.416 549.53 208.616C551.578 207.816 553.818 207.416 556.25 207.416C560.058 207.416 563.05 207.912 565.226 208.904C564.746 208.168 564.362 207.384 564.074 206.552C563.818 205.688 563.69 204.904 563.69 204.2C563.69 202.984 564.074 201.944 564.842 201.08C565.642 200.216 566.842 199.784 568.442 199.784ZM558.026 216.824C558.538 215.192 558.794 213.944 558.794 213.08C558.794 211.992 558.33 211.448 557.402 211.448C556.602 211.448 555.898 211.848 555.29 212.648C554.714 213.416 554.122 214.808 553.514 216.824C553.002 218.488 552.746 219.752 552.746 220.616C552.746 221.672 553.194 222.2 554.09 222.2C554.89 222.2 555.594 221.8 556.202 221C556.81 220.2 557.418 218.808 558.026 216.824ZM548.474 233.672C547.578 233.672 546.762 233.624 546.026 233.528C545.642 234.008 545.45 234.648 545.45 235.448C545.482 236.248 545.802 236.824 546.41 237.176C547.05 237.528 548.026 237.704 549.338 237.704C550.938 237.704 552.234 237.464 553.226 236.984C554.25 236.504 554.762 235.816 554.762 234.92C554.762 234.536 554.618 234.232 554.33 234.008C554.042 233.784 553.626 233.672 553.082 233.672H548.474Z" fill="black"/>
<defs>
<linearGradient id="paint0_linear" x1="70.0406" y1="137.143" x2="124.641" y2="-42.7159" gradientUnits="userSpaceOnUse">
<stop offset="0.544792" stop-color="#FF6700"/>
<stop offset="0.544892"/>
</linearGradient>
</defs>
</svg>
